<svg id="Capa_1" data-name="Capa 1" xmlns="http://www.w3.org/2000/svg" viewBox="0 0 237.8 232.24"><defs><style>.cls-1{fill:#c73868;}</style></defs><path class="cls-1" d="M300,241.74c-2.34,1.37-4.59,2.66-6.81,4a14,14,0,0,0-2.41,1.68c-2.86,2.67-6.37,4.26-9.73,6.13a6.15,6.15,0,0,0-1.06.6A68.7,68.7,0,0,1,268.27,262c-3.25,1.7-6.1,4.13-9.27,6-2,1.18-4,2.43-6.1,3.43a20.23,20.23,0,0,0-3.49,2.81c-2.16-.17-3.31,2.29-5.33,3.24-.58.28-1.12.61-1.68.93-2.11,1.18-4.27,2.3-6.32,3.59a25.08,25.08,0,0,0-3,2.59,24.56,24.56,0,0,0-8.43,5.75l-2.28.19-1.53,1.86-.21-.28a25.59,25.59,0,0,0-3,1.42c-3.94,2.51-7.81,5.12-11.75,7.62-3.15,2-6.33,4-9.58,5.8a10.66,10.66,0,0,1-3,.71c-4-2-7.75-4-11.55-5.83s-7.53-3.57-11.25-5.43c-.84-.42-1.39-1.42-2.23-1.81-3.16-1.47-6.38-2.79-9.57-4.17a3.14,3.14,0,0,1-.85-.45c-2-1.77-4.56-2.45-6.79-3.76-1.62-.95-3.21-1.94-4.87-2.8-4-2-8-4-12-6-.86-.42-1.78-.72-2.63-1.15-4.71-2.35-9.2-5.13-14.17-7a29.08,29.08,0,0,1-3.33-2c-2.36-1.26-4.76-2.44-7.14-3.68-1.51-.79-3-1.63-4.49-2.45-4.28-2.34-8.36-5.08-13.12-6.46-.79-.23-1.39-1-2.14-1.44-1.49-.82-3-1.53-4.52-2.31-2.46-1.29-4.9-2.6-7.35-3.9-.71-.38-1.43-.74-2.15-1.1-1.3-.64-2.61-1.27-3.94-1.86l-6.32-2.82-.69-2.8c.7-1.11,1.48-2.55,2.47-3.83s2.19-2.4,3.37-3.66l.21-1.65c1.39.64.62-.95,1.28-1.2a9.8,9.8,0,0,0,2-1.5l-1.76-.77c.34-2.29,1-2.93,3.68-3.39,1.1-2.43,4-3.25,5.11-5.86.93-2.15,2.73-3.92,4.54-6.4a31.11,31.11,0,0,0,6.28-8.34,11.47,11.47,0,0,0,1.84-1.62c1.11-1.46,2-3.1,3.18-4.5,1.75-2.09,3.24-4.37,5.13-6.36,1.11-1.17,1.71-2.79,2.71-4.09,2-2.65,4.23-5.17,6.25-7.83,1.68-2.22,3.17-4.59,4.81-6.84.86-1.18,1.91-2.23,2.81-3.39,1.4-1.82,2.72-3.7,4.11-5.52s2.78-3.39,4.06-5.16c1.61-2.22,3-4.58,4.66-6.79,1.74-2.38,3.63-4.65,5.43-7,1.56-2,3-4.11,4.62-6.13,1.06-1.37,2.25-2.64,3.31-4,2.21-2.84,4.4-5.69,6.54-8.58a10.44,10.44,0,0,0,.94-2.15c.86.33,1.23-.43,1.62-1,.88-1.28,1.64-2.66,2.55-3.92,1.55-2.12,3.15-4.2,4.76-6.28q5.21-6.74,10.42-13.44A11.45,11.45,0,0,0,169.9,96c1.57-2.76,3.93-5,5.56-7.66,1.88-3.08,4.35-5.71,6.23-8.78a14,14,0,0,1,3.1-3.38,2.55,2.55,0,0,1,3.66,0c1.64,2.44,3.14,4.79,4.75,7,2.34,3.27,5,6.35,7.1,9.74s5.14,6.08,7.07,9.55c1.59,2.87,3.95,5.15,5.51,8.07,1.36,2.58,3.5,4.74,5.23,7.14.84,1.17,1.51,2.48,2.32,3.69,1.44,2.18,2.8,4.44,4.43,6.48s2.44,4.36,4.81,5.54a1.71,1.71,0,0,1,.59,1.06c.79,3.27,3.31,5.42,5.13,8,.37.53.8,1,1.13,1.6a34.68,34.68,0,0,0,4.73,6.46c1.06,1.1,1.64,2.63,2.55,3.9,1.79,2.52,3.67,5,5.5,7.48a39.57,39.57,0,0,1,2.62,3.81c2.18,3.94,5.21,7.25,7.94,10.79.65.83,1.15,1.78,1.75,2.66,2.64,3.85,5.3,7.69,7.94,11.54,1.07,1.55,2.09,3.13,3.18,4.66a21.84,21.84,0,0,0,1.75,1.93l.19,1.59c2.95,2.14,4.13,5.63,6.1,8.54,2.54,3.78,4.88,7.7,8,11a12.36,12.36,0,0,1,1.26,1.83c.47.76.87,1.57,1.38,2.31a59.56,59.56,0,0,1,8.27,18Zm-198.41-3.1c1.13-1.34,2.39-.92,3.83-.82l.42,1.77-2,1.13-2.11-1,0,.28H96.48l-.8.95-3.5-.88-4.29.83-1.58-1.14c-1.24.46-2.4,1.12-3.37-.37-1.79,1.63-3.82.74-5.77.32l-1.25.9c-3.67-1-3.67-1-4.75.33l8.65,4.65c2.08,1.1,4.17,2.17,6.24,3.27,3.24,1.73,6.47,3.48,9.72,5.2,1.72.9,3.48,1.74,5.2,2.63,2.75,1.42,5.42,3,8.26,4.26s5.36,2.69,8.09,3.92c3.11,1.41,6.17,3,9.19,4.56,1.85,1,3.42,2.56,5.7,2.62.74,1.61,2.36,1.18,3.56,1.69,8.67,5.41,18,9.49,27.06,14.22s18.23,9.43,27.56,14.26l1.17-1.28c.18-2.65.54-5,.46-7.28-.13-3.71-.68-7.4-.8-11.1-.15-4.69,0-9.38-.06-14.06,0-2-.29-4.07-.43-5.89l-1.6-.63c.09-.45.05-.76.19-.92a4.72,4.72,0,0,0,.95-5.27c-.32-.83.05-1.95.14-2.94a12.54,12.54,0,0,0,.25-1.69c-.12-2.39-.28-4.79-.5-7.17a23.27,23.27,0,0,0-.6-2.77c-2.55.81-3.1.75-5-.49-1.66,1.76-3.49,1.06-5.12.2l-2.09.64-1.6-.51-.54-1.36,2.27-1.41c1.25.18,2.3.67,3,.35a3.91,3.91,0,0,1,4.15.64l1.47-1,3.53-.16c-.39-1.41.88-2.16.26-3.69-.56-1.38-.19-3.14-.2-4.73,0-3.85,0-7.71,0-11.56a6.89,6.89,0,0,1-.91-3.19c0-1,.35-1.94.39-2.91a19,19,0,0,0-.07-5c-.39-1.69.39-3.21.1-4.82-.22-1.21-.75-2.57-.4-3.62.61-1.8-.09-3.46-.06-5.17.09-4.55-.37-9.11-.54-13.67-.09-2.34.05-4.69,0-7s-.32-4.45-.47-6.68-.81-4.39-.32-6.38c.86-3.56-.13-7-.1-10.44,0-4.19-.41-8.38-.58-12.57-.09-2.09,0-4.19,0-6.28s-.14-4.19-.06-6.3a53.42,53.42,0,0,0-.45-6.42c-.15-1.73-.34-3.45-.47-5.17a19.15,19.15,0,0,1,.05-2,35.25,35.25,0,0,0,.07-3.56c-.12-1.6-.85-3.29-.52-4.76a16.23,16.23,0,0,0-.11-6.66,15.24,15.24,0,0,1-.3-2.85c.05-2.91.21-5.81.24-8.72a6.55,6.55,0,0,0-.67-1.93c-1.91,2.41-3.75,4.6-5.44,6.91-2,2.71-3.75,5.58-5.78,8.25-2.45,3.24-5.15,6.29-7.63,9.51-1.9,2.46-3.6,5.07-5.42,7.61s-3.74,4.89-5.61,7.33-3.82,4.44-5.52,6.84c-1.3,1.82-2.63,3.62-4,5.37-1.71,2.1-3.17,4.39-4.78,6.57-2.43,3.27-4.91,6.49-7.35,9.75-1.43,1.9-2.81,3.84-4.24,5.74-3.24,4.29-6.57,8.53-9.72,12.89-2.06,2.86-4,5.84-6.23,8.54a28.35,28.35,0,0,0-3.27,4c-1.89,3.36-4.57,6.09-6.86,9.12-1.69,2.24-3.56,4.33-5.27,6.54-2.13,2.76-3.72,5.88-6.13,8.44a54,54,0,0,0-3.88,4.65c-1.37,1.81-2.56,3.77-3.91,5.6-2.55,3.42-5.17,6.79-7.75,10.19-2.44,3.21-4.85,6.43-7.5,9.94l.51,1.84,2.31-1,2.26,1.06a12.14,12.14,0,0,1,3.38-.28c.63,0,1.36.34,1.89.12a4.54,4.54,0,0,1,4.45.56l2-1,0,.3h5.72l1.12,1,3.48-1.22,1.64.76C98.68,237.62,100.2,237.29,101.59,238.64Zm181.85-23.57a16.22,16.22,0,0,1-2.78-2.41c-1.8-2.43-3.4-5-5.08-7.53-1.23-1.83-2.41-3.7-3.7-5.5-2.94-4.13-5.93-8.23-8.91-12.35-1.88-2.59-3.75-5.18-5.65-7.75-1.27-1.72-2.84-3.28-3.79-5.15a40.56,40.56,0,0,0-5.22-7.74,76.63,76.63,0,0,1-4.4-6.46c-2.13-3.11-4.78-5.88-6.81-9.05-2.79-4.35-5.82-8.52-8.85-12.7-2.7-3.73-5.2-7.61-8-11.27s-5-7.84-7.93-11.52c-1-1.32-1.9-2.77-2.9-4.11-1.2-1.62-2.46-3.19-4.1-5.3-.81-3.46-4.38-5.91-6.55-9.3s-4.88-6.77-7.47-10.3c-1.86.19-2.65-1.09-3-3,0,2.06.35,4,.41,6,.17,5.14.2,10.28.3,15.43.07,3.46,0,6.93.31,10.37.18,1.88-.32,3.69-.08,5.55s.38,4,.5,6c.22,3.81-.15,7.62.42,11.45a101.3,101.3,0,0,1,.58,11.7c.07,2.58,0,5.16,0,7.74l1.06,1.61a9.91,9.91,0,0,0-1,4.34c.05,3.06.28,6.12.47,9.18.07,1.13.23,2.27.35,3.4a27.78,27.78,0,0,0-.3,5.15c.12,3.09.41,6.17.52,9.26.2,5.74.31,11.47.46,17.21,0,.08.05.16.05.24.14,2.23.72,4.55.28,6.66-.48,2.35.4,4.32.55,6.5-1.26,5.58.41,11.15.1,16.72l2.12,1.12,0-.35,3.25-.19c.63,1.69.63,1.69-.91,3h-3.92a13,13,0,0,0-.55,2.8c.06,2.5.38,5,.45,7.49.21,7.07.35,14.15.52,21.23,0,.75,0,1.5.07,2.25a16.45,16.45,0,0,1,.37,3.65,18.09,18.09,0,0,0,0,4.82c.46,4.37.4,8.79.62,13.19.07,1.44.35,2.86.53,4.28h2.55c2.87-2.21,6.67-3.06,8.93-6.42a6.62,6.62,0,0,0,4.17-1.87c.74-.76,2-1.09,2.6-1.92.86-1.17,2.2-.83,3.22-1.46,3.64-2.2,6.93-4.89,10.3-7.18l1.09.29a28.26,28.26,0,0,1,5-3.58c.85-.51,1.75-.92,2.56-1.47,2.54-1.67,5-3.47,7.59-5.07,3.61-2.24,7.41-4.2,10.95-6.55,4.8-3.2,10.27-5.46,14-10l1.63.57.3-1.22c1.7-.79,3.42-1.47,5-2.37s3-2,4.51-3c3.25-2,6.54-4,9.81-6l5.43-3.3-.13-.47H282c-1.81.62-3,.29-2.87-1.68l1.13-1.24a12.56,12.56,0,0,0,3,.58c1.95-.18,3.87-.62,5.81-.9a8.47,8.47,0,0,1,1.74,0c1.64.13,3.28.33,4.92.37.47,0,1-.43,1.46-.68-1.45-2.43-2.78-4.67-4.11-6.92a2.82,2.82,0,0,0-3.29-1.56c-1.53-.94,0-2-.19-2.79C287.47,222.2,285,219.07,283.44,215.07Z" transform="translate(-62.2 -75.42)"/><path class="cls-1" d="M151.63,238.87l8.31-.41,0-.29,2,1v-.37h7.25l.41,2.45c-4.17,0-7.91.05-11.65,0s-7.45-.25-11.13-.39c-.55-1.18-.13-1.7.74-2.13A3.55,3.55,0,0,1,151.63,238.87Z" transform="translate(-62.2 -75.42)"/><path class="cls-1" d="M119.56,240.79c-2.81-.34-5.48.62-7.5-.95l-4.74.51.28-2.54H111l.8.9,2.08-1,0,.36,5.67-.32,1.47,1.33Z" transform="translate(-62.2 -75.42)"/><path class="cls-1" d="M174,238.67l.87,1.77L172,242.07l-1.49-1.57C171,237.93,172.66,239,174,238.67Z" transform="translate(-62.2 -75.42)"/><path class="cls-1" d="M144.64,241.22,141.12,240l1.5-1.69h2.25C145.76,239.38,145.78,240.29,144.64,241.22Z" transform="translate(-62.2 -75.42)"/><path class="cls-1" d="M125.2,240.66H123l-.7-1.69c.78-.49,1.39-.87,2.15-1.33l2.26,1.46Z" transform="translate(-62.2 -75.42)"/><path class="cls-1" d="M134.91,239.12c-.58,1.68-.58,1.68-3.17,1.34l-.38-2A3.15,3.15,0,0,1,134.91,239.12Z" transform="translate(-62.2 -75.42)"/><path class="cls-1" d="M137.3,238.28h3l.23,1.56c-1.06.69-2.09,1.48-3.14.39C137,239.9,137.3,239,137.3,238.28Z" transform="translate(-62.2 -75.42)"/><path class="cls-1" d="M126.8,239.92c1-2.12,1.85-2.25,3.7-.71L129,240.85Z" transform="translate(-62.2 -75.42)"/><path class="cls-1" d="M253.24,240.59a22.35,22.35,0,0,1-2.27.61c-1.74.29-3.56-.69-5.26.36-2.17-1.14-4.44-.4-6.67-.35-.94,0-1.89-.05-2.82,0s-1.77.27-2.89.45l-.94-.6c-1.1.06-1.91.06-2.71.14a24.22,24.22,0,0,1-3.15.4,12,12,0,0,1-3.21-.64,20,20,0,0,1-9.22-.2,3.86,3.86,0,0,1-5,0,2.54,2.54,0,0,1-3,.67c-.7-.32-1.72.08-2.6.15-1.11.09-2.38.53-2.85-1.41l1.55-1.64,2.32,1c1.38-.82,2.84-2.43,4.62-.23l1.86-1.24,3.19.61a1.23,1.23,0,0,0,.5,0c2.85-.58,5.63.1,8.44.39a12.92,12.92,0,0,0,5.36-.54,4,4,0,0,1,3.66.58l4.14-1.55L238,239l2.53-1.13,2.31.76c2.83-1.17,6,.71,8.8-1l1.65,2,2-1.41c2.36,1.25,2.47,1.9.53,4.25Z" transform="translate(-62.2 -75.42)"/><path class="cls-1" d="M264.07,241.11l-1.21-1.27,1.36-1.6h3.12l.83,1.43A3.81,3.81,0,0,1,264.07,241.11Z" transform="translate(-62.2 -75.42)"/><path class="cls-1" d="M277.41,240.62h-3.47c-.06-.73-.11-1.46-.16-2.22L277,238C277.73,238.54,278.78,239.21,277.41,240.62Z" transform="translate(-62.2 -75.42)"/><path class="cls-1" d="M270.42,241.23c-1-.83-2.05-1.54-.76-2.93h3l.49,1.9Z" transform="translate(-62.2 -75.42)"/><path class="cls-1" d="M262.43,240.48l-2.27.79-1.6-.82c-.3-1.67,1.1-1.67,1.93-2.26C261.32,238.77,262.71,238.77,262.43,240.48Z" transform="translate(-62.2 -75.42)"/></svg>