<svg id="Bold" xmlns="http://www.w3.org/2000/svg" viewBox="0 0 500 500"><defs><style>.cls-1{fill:#fff;}</style></defs><path class="cls-1" d="M149.89,183.14H74.56a6,6,0,0,0-6,6v241.7a6,6,0,0,0,6,6h75.21a6,6,0,0,0,6-6V189.18A6,6,0,0,0,149.89,183.14Z"/><path class="cls-1" d="M112.29,63a49.63,49.63,0,1,0,49.57,49.69A49.69,49.69,0,0,0,112.29,63Z"/><path class="cls-1" d="M341.29,177.21c-30.23,0-52.6,12.94-66.14,27.81V189.3a6,6,0,0,0-6-6H197a6,6,0,0,0-6,6V431a6,6,0,0,0,6,6h75.09a6,6,0,0,0,6-6V311.42c0-40.26,11-56,39.05-56,30.59,0,33,25.15,33,58V431a6,6,0,0,0,6,6h75.08a6,6,0,0,0,6.05-6V298.36C437.41,238.39,425.92,177.21,341.29,177.21Z"/></svg>