<svg id="Bold" xmlns="http://www.w3.org/2000/svg" viewBox="0 0 500 500"><defs><style>.cls-1{fill:#fff;}</style></defs><path class="cls-1" d="M403.61,148c-45.8-32.87-88.49-34.22-96.65-34.43l-5.17,5c58.4,16.33,86.72,41.86,86.72,41.86-50.23-24.29-97.58-32.77-138.51-33.28-41,.51-88.28,9-138.51,33.28,0,0,28.22-25.53,86.72-41.86l-5.17-5c-8.16.21-50.85,1.56-96.65,34.43,0,0-51.16,85.9-51.16,191.33C47,337.3,77,384.74,154.38,386.4c0,0,13-14.48,22.43-27.29-45.17-12.82-62.12-38.35-62.12-38.35,46.83,28.94,90.65,40.1,135.31,38.66,44.55,1.55,88.38-9.62,135.31-38.66,0,0-17.06,25.53-62.12,38.35,9.4,12.81,22.43,27.29,22.43,27.29,77.42-1.66,107.4-49,109.15-47C454.77,233.93,403.61,148,403.61,148ZM187.05,306.39c-19.85,0-35.77-16.33-35.77-36.49s16-36.49,35.77-36.49v.21c19.53,0,35.66,16.33,35.76,36.49C222.81,290.06,206.9,306.39,187.05,306.39Zm125.9,0c-19.85,0-35.76-16.33-35.76-36.28,0-20.16,16.12-36.49,35.76-36.49v-.21c19.85,0,35.77,16.33,35.77,36.49S332.8,306.39,313,306.39Z"/></svg>