<svg id="Bold" xmlns="http://www.w3.org/2000/svg" viewBox="0 0 500 500"><defs><style>.cls-1{fill:#fff;}</style></defs><path class="cls-1" d="M418.86,163c17.29-12.68,32.27-27.67,43.8-45a186.72,186.72,0,0,1-49.56,13.84,80.23,80.23,0,0,0,38-48.41,228,228,0,0,1-55.32,20.74A86.46,86.46,0,0,0,246,163a101.71,101.71,0,0,0,2.3,19.59c-73.77-2.3-137.16-38-179.81-89.9a91.74,91.74,0,0,0-11.53,43.8,88.49,88.49,0,0,0,38,72.61c-13.83,0-27.66-4.61-39.19-10.37v1.15a86.76,86.76,0,0,0,69.16,85.3,74.47,74.47,0,0,1-23,3.45c-5.77,0-11.53,0-16.14-1.15,11.53,34.58,43.8,59.94,80.68,61.09A175.67,175.67,0,0,1,58.09,385.43c-6.92,0-13.83,0-20.75-1.15,38,25.36,84.14,39.19,133.7,39.19C325.5,421.17,425.78,293.22,418.86,163Z"/></svg>