<?xml version="1.0" encoding="UTF-8"?>
<svg id="Layer_1" xmlns="http://www.w3.org/2000/svg" version="1.1" viewBox="0 0 57.9 57.9">
  <!-- Generator: Adobe Illustrator 29.1.0, SVG Export Plug-In . SVG Version: 2.1.0 Build 142)  -->
  <defs>
    <style>
      .st0 {
        fill: #fff;
      }
    </style>
  </defs>
  <path class="st0" d="M42.3,13.9c-.6-.5-1.5-.6-2.4-.2h0c-1,.4-28,12-29.1,12.5-.2,0-1.9.7-1.8,2.2.2,1.3,1.6,1.9,1.7,1.9l6.9,2.4c.5,1.5,2.1,7.1,2.5,8.3.2.7.6,1.7,1.3,1.9.6.2,1.2,0,1.5-.3l4.2-3.9,6.8,5.3h.2c.5.3.9.4,1.3.4s.6,0,.9-.2c1-.4,1.4-1.4,1.5-1.5l5.1-26.3c.3-1.4-.1-2.1-.5-2.5ZM23.6,33.6l-2.3,6.2-2.3-7.7,17.8-13.1-13.1,14.7Z"/>
</svg>